<svg xmlns="http://www.w3.org/2000/svg" viewBox="0 0 1200 132" width="1200" height="132" role="img" aria-label="Primary language across 80 repositories: TypeScript 55%, Python 24%, JavaScript 9%, R 8%, Swift 4%, OCaml 1%">
  <defs>
    <clipPath id="reveal"><rect x="40" y="54" width="1120" height="26">
      <animate attributeName="width" from="0" to="1120" dur="1.6s" fill="freeze" calcMode="spline" keySplines="0.2 0.7 0.2 1" keyTimes="0;1"/>
    </rect></clipPath>
  </defs>
  <rect width="1200" height="132" rx="16" fill="#0a0a0a"/>
  <g font-family="-apple-system, BlinkMacSystemFont, 'Segoe UI', Helvetica, Arial, sans-serif">
    <text x="40" y="38" font-size="20" font-weight="600" fill="#70befa">Languages</text>
    <text x="1160" y="38" font-size="16" text-anchor="end" fill="#8b949e">primary language across 80 repositories</text>
    <g clip-path="url(#reveal)"><rect x="40.0" y="60" width="605.0" height="14" rx="7" fill="#70befa"/><rect x="649.0" y="60" width="261.2" height="14" rx="7" fill="#a78bfa"/><rect x="914.2" y="60" width="96.2" height="14" rx="7" fill="#4f8ff0"/><rect x="1014.5" y="60" width="82.5" height="14" rx="7" fill="#c4b5fd"/><rect x="1101.0" y="60" width="41.2" height="14" rx="7" fill="#8fa5fb"/><rect x="1146.2" y="60" width="13.8" height="14" rx="7" fill="#6d5fe0"/></g>
    <circle cx="46.0" cy="100" r="6" fill="#70befa"/><text x="62.0" y="106" font-size="18" fill="#e6edf3">TypeScript <tspan fill="#8b949e">55%</tspan></text><circle cx="232.7" cy="100" r="6" fill="#a78bfa"/><text x="248.7" y="106" font-size="18" fill="#e6edf3">Python <tspan fill="#8b949e">24%</tspan></text><circle cx="419.3" cy="100" r="6" fill="#4f8ff0"/><text x="435.3" y="106" font-size="18" fill="#e6edf3">JavaScript <tspan fill="#8b949e">9%</tspan></text><circle cx="606.0" cy="100" r="6" fill="#c4b5fd"/><text x="622.0" y="106" font-size="18" fill="#e6edf3">R <tspan fill="#8b949e">8%</tspan></text><circle cx="792.7" cy="100" r="6" fill="#8fa5fb"/><text x="808.7" y="106" font-size="18" fill="#e6edf3">Swift <tspan fill="#8b949e">4%</tspan></text><circle cx="979.3" cy="100" r="6" fill="#6d5fe0"/><text x="995.3" y="106" font-size="18" fill="#e6edf3">OCaml <tspan fill="#8b949e">1%</tspan></text>
  </g>
</svg>
